<svg xmlns="http://www.w3.org/2000/svg" viewBox="0 0 47.5 47.5"><defs><clipPath id="a"><path d="M0 38h38V0H0v38Z"/></clipPath></defs><g clip-path="url(#a)" transform="matrix(1.25 0 0 -1.25 0 47.5)"><path fill="#a0041e" d="m2 20 8 7 16-1 1-16-7-8s0 5.999-6 12c-6.001 6.001-12 6-12 6"/><path fill="#ffac33" d="M1.973 2s-.036 7.979 2.985 11S16 15.813 16 15.813 15.999 8 12.999 5c-3-3-11.026-3-11.026-3"/><path fill="#ffcc4d" d="M5.999 10a4 4 0 1 0 8 0 4 4 0 0 0-8 0"/><path fill="#55acee" d="M36.999 37s-10 0-22-10c-6-5-6-14-4-16s11-2 16 4c10 12 10 22 10 22"/><path d="M27.999 32a3.996 3.996 0 0 1-3.641-2.36c.502.227 1.055.36 1.641.36a4 4 0 0 0 4-4c0-.586-.133-1.139-.359-1.64A3.995 3.995 0 0 1 27.999 32"/><path fill="#a0041e" d="M9 9s0 4 1 5 13.001 10.999 14 10c.999-.999-9.001-13-10.001-14S9 9 9 9"/></g></svg>